<svg version="1.1" xmlns="http://www.w3.org/2000/svg" xmlns:xlink="http://www.w3.org/1999/xlink" width="50.63371" height="35.32054" viewBox="0,0,50.63371,35.32054"><defs><linearGradient x1="254.98173" y1="181.89497" x2="224.4385" y2="181.89497" gradientUnits="userSpaceOnUse" id="color-1"><stop offset="0" stop-color="#64c2db"/><stop offset="0.51042" stop-color="#7476ed"/><stop offset="1" stop-color="#e56f8c"/></linearGradient><linearGradient x1="216.72321" y1="176.89412" x2="237.19994" y2="176.89412" gradientUnits="userSpaceOnUse" id="color-2"><stop offset="0" stop-color="#ff7b7b"/><stop offset="1" stop-color="#8474de"/></linearGradient><linearGradient x1="222.40596" y1="178.59424" x2="233.45984" y2="178.59424" gradientUnits="userSpaceOnUse" id="color-3"><stop offset="0" stop-color="#d078a1"/><stop offset="1" stop-color="#9a75cc"/></linearGradient><linearGradient x1="222.40596" y1="178.59424" x2="233.45984" y2="178.59424" gradientUnits="userSpaceOnUse" id="color-4"><stop offset="0" stop-color="#e27a93"/><stop offset="1" stop-color="#9975cd"/></linearGradient><linearGradient x1="243.69961" y1="173.06739" x2="262.60467" y2="180.9347" gradientUnits="userSpaceOnUse" id="color-5"><stop offset="0" stop-color="#7282ea"/><stop offset="1" stop-color="#70bdd7"/></linearGradient><linearGradient x1="246.82751" y1="178.68476" x2="259.4768" y2="179.09034" gradientUnits="userSpaceOnUse" id="color-6"><stop offset="0" stop-color="#719ce2"/><stop offset="1" stop-color="#70b4da"/></linearGradient><linearGradient x1="246.82751" y1="178.68477" x2="259.4768" y2="179.09035" gradientUnits="userSpaceOnUse" id="color-7"><stop offset="0" stop-color="#719ae2"/><stop offset="1" stop-color="#70b4d9"/></linearGradient></defs><g transform="translate(-214.81721,-162.32426)"><g data-paper-data="{&quot;isPaintingLayer&quot;:true}" fill-rule="nonzero" stroke-linecap="butt" stroke-linejoin="miter" stroke-miterlimit="10" stroke-dasharray="" stroke-dashoffset="0" style="mix-blend-mode: normal"><path d="M223.12401,196.25363c-0.27653,-0.7792 -0.49762,-1.5804 -0.66024,-2.3979c-0.66395,-3.338 -0.32319,-6.7978 0.97921,-9.9421c1.30239,-3.1442 3.50791,-5.83164 6.33766,-7.72242c1.46651,-0.97988 3.06652,-1.72298 4.74149,-2.21156c1.55707,-0.45419 1.56615,1.95065 2.03281,2.83034c0.49575,0.93454 2.39164,-0.65452 2.39164,-0.65452c0,0 -0.66,-2.14247 0.48169,-2.62026c0.75129,-0.31441 2.00694,-0.43458 2.83193,-0.11769c0.3944,0.1515 0.41136,0.93515 0.44662,2.84248c0.01655,0.8952 1.2572,0.3685 2.92699,0.04957c0.33112,-0.06324 -0.34213,-1.77711 0.45327,-2.60666c0.81493,-0.84991 1.92571,-0.22879 2.25193,-0.23483c0.59444,-0.011 0.4671,2.66003 0.56153,2.72313c2.8298,1.89078 5.0353,4.57822 6.3377,7.72252c1.3024,3.1442 1.6431,6.604 0.9792,9.942c-0.1626,0.8175 -0.3837,1.6187 -0.6603,2.3979c-1.4124,3.9799 -14.0656,-1.99123 -14.0656,-1.99123c0,0 -0.3949,-2.77947 -0.2734,-3.39027c0.0738,-0.3713 0.0359,-0.7562 -0.109,-1.106c-0.1449,-0.3498 -0.3902,-0.6488 -0.705,-0.8591c-0.3148,-0.2103 -0.6849,-0.3226 -1.0635,-0.3226c-0.3786,0 -0.7487,0.1123 -1.0635,0.3226c-0.3149,0.2103 -0.5602,0.5093 -0.7051,0.8591c-0.1449,0.3498 -0.1828,0.7347 -0.1089,1.106c0.1215,0.6108 -0.2735,3.53688 -0.2735,3.53688c0,0 -12.65321,5.82452 -14.06562,1.84462z" fill="url(#color-1)" stroke="none" stroke-width="1"/><path d="M231.13428,181.92899l4.90664,2.20265l1.15901,6.18849l-14.67024,2.90324l-1.24425,-6.28725l1.456,-3.26161l-1.659,-8.383l-5.02099,-3.362l-1.24425,-6.28726l3.14363,-0.62212l0.62213,3.14363l3.66756,-0.72581l-0.62213,-3.14363l3.14362,-0.62212l0.62213,3.14363l3.66757,-0.72581l-0.62213,-3.14363l3.14362,-0.62213l1.24425,6.28725l-3.362,5.021l0.41475,2.09574zM230.08393,181.87423l-4.01924,-8.91897l2.31977,-3.46449l-7.85906,1.55531l3.44353,2.32394l4.07927,9.22235l-3.362,5.02099l0.36498,1.84425l8.38299,-1.65899l-0.20738,-1.04788c-0.22692,-1.14663 -3.14288,-4.87651 -3.14288,-4.87651z" fill="url(#color-2)" stroke="none" stroke-width="1"/><path d="M233.25404,186.79268l0.2058,1.04886l-8.42146,1.66441l-0.33523,-1.93963l3.34362,-5.02393l-4.0637,-9.12441l-3.4831,-2.41494l7.89511,-1.56112l-2.33064,3.56335l4.04693,8.91078c0,0 2.91576,3.73001 3.14269,4.87664z" data-paper-data="{&quot;noHover&quot;:false,&quot;origItem&quot;:[&quot;Path&quot;,{&quot;applyMatrix&quot;:true,&quot;segments&quot;:[[335.60282,397.20368],[331.37633,375.84699],[336.01588,368.918],[320.29776,372.02862],[327.18482,376.67649],[331.53139,398.63994],[324.8074,408.68193],[325.53736,412.37044],[342.30333,409.05245],[[341.88858,406.9567],[0,0],[-0.45384,-2.29326]]],&quot;closed&quot;:true,&quot;fillColor&quot;:[0,0,0,1]}]}" fill="url(#color-3)" stroke="url(#color-4)" stroke-width="0.5"/><path d="M257.50582,182.36061l0.22839,4.21295l-1.46076,6.7436l-13.48685,-2.94295l1.26686,-6.28273l5.03306,-3.34391l1.83413,-7.05745l-3.49053,-5.03306l1.26686,-6.28274l3.14137,0.63344l-0.63343,3.14137l3.66492,0.739l0.63343,-3.14136l3.14136,0.63343l-0.63343,3.14137l3.66493,0.739l0.63343,-3.14136l3.14136,0.63343l-1.26524,6.13613l-4.88808,3.49052l-0.71552,2.82731zM254.12144,182.79855l2.29827,-9.49776l3.47281,-2.30731l-8.00166,-1.43696l2.4346,3.32199l-2.35939,9.80092l-5.03305,3.34391l-0.37162,1.84293l8.37696,1.68914l0.21115,-1.04712c0.23104,-1.14581 -1.02806,-5.70974 -1.02806,-5.70974z" data-paper-data="{&quot;index&quot;:null}" fill="url(#color-5)" stroke="none" stroke-width="1"/><path d="M255.15968,188.55724l-0.21305,1.04748l-8.41481,-1.69814l0.43406,-1.92093l5.01512,-3.35394l2.33577,-9.5571l-2.43177,-3.56774l7.8887,1.59278l-3.48126,2.30235l-2.15894,9.44508c0,0 1.25724,4.56436 1.0262,5.71017z" data-paper-data="{&quot;noHover&quot;:false,&quot;origItem&quot;:[&quot;Path&quot;,{&quot;applyMatrix&quot;:true,&quot;segments&quot;:[[381.59402,396.43531],[385.21118,374.967],[392.00534,370.13217],[376.20508,367.47002],[380.99777,374.25709],[377.27784,396.33533],[367.43124,403.34232],[366.80652,407.0501],[383.66011,409.88973],[[384.01507,407.78303],[0,0],[0.3884,-2.30525]]],&quot;closed&quot;:true,&quot;fillColor&quot;:[0,0,0,1]}]}" fill="url(#color-6)" stroke="url(#color-7)" stroke-width="0.5"/></g></g></svg>